<svg width="30" height="30" viewBox="0 0 30 30" fill="none" xmlns="http://www.w3.org/2000/svg">
<path d="M14.7879 19.9828C14.813 20.0148 14.845 20.0407 14.8816 20.0585C14.9181 20.0763 14.9582 20.0856 14.9989 20.0856C15.0395 20.0856 15.0797 20.0763 15.1162 20.0585C15.1528 20.0407 15.1848 20.0148 15.2098 19.9828L18.9598 15.2384C19.0971 15.0643 18.9732 14.8065 18.7489 14.8065H16.2679V3.47611C16.2679 3.32879 16.1473 3.20825 16 3.20825H13.9911C13.8438 3.20825 13.7232 3.32879 13.7232 3.47611V14.8031H11.2489C11.0246 14.8031 10.9007 15.0609 11.0379 15.235L14.7879 19.9828ZM27.2533 18.8109H25.2444C25.0971 18.8109 24.9766 18.9315 24.9766 19.0788V24.235H5.02121V19.0788C5.02121 18.9315 4.90067 18.8109 4.75335 18.8109H2.74442C2.5971 18.8109 2.47656 18.9315 2.47656 19.0788V25.7083C2.47656 26.3009 2.95536 26.7797 3.54799 26.7797H26.4498C27.0424 26.7797 27.5212 26.3009 27.5212 25.7083V19.0788C27.5212 18.9315 27.4007 18.8109 27.2533 18.8109Z" fill="white"/>
</svg>
