<svg width="24" height="24" viewBox="0 0 24 24" fill="none" xmlns="http://www.w3.org/2000/svg">
<path d="M23.5234 11.3064C22.5818 9.3226 21.4612 7.70475 20.1618 6.45278L18.7989 7.81564C19.9102 8.87769 20.8783 10.2671 21.7153 11.9974C19.4868 16.6099 16.3234 18.801 12.0002 18.801C10.7025 18.801 9.50721 18.6012 8.41435 18.2015L6.93765 19.6782C8.45551 20.3791 10.143 20.7296 12.0002 20.7296C17.1484 20.7296 20.9894 18.0483 23.5234 12.6858C23.6252 12.4702 23.6781 12.2346 23.6781 11.9961C23.6781 11.7576 23.6252 11.522 23.5234 11.3064ZM21.8206 2.71778L20.6787 1.57457C20.6588 1.55464 20.6352 1.53884 20.6092 1.52805C20.5832 1.51727 20.5553 1.51172 20.5271 1.51172C20.499 1.51172 20.4711 1.51727 20.4451 1.52805C20.419 1.53884 20.3954 1.55464 20.3755 1.57457L17.446 4.50278C15.8308 3.67778 14.0155 3.26528 12.0002 3.26528C6.85194 3.26528 3.01087 5.94653 0.47694 11.309C0.375089 11.5247 0.322266 11.7603 0.322266 11.9988C0.322266 12.2373 0.375089 12.4728 0.47694 12.6885C1.48926 14.8206 2.70801 16.5297 4.13319 17.8156L1.29873 20.6492C1.25857 20.6894 1.23601 20.7439 1.23601 20.8007C1.23601 20.8575 1.25857 20.912 1.29873 20.9522L2.44221 22.0956C2.48239 22.1358 2.53687 22.1584 2.59368 22.1584C2.65049 22.1584 2.70497 22.1358 2.74515 22.0956L21.8206 3.02099C21.8405 3.00109 21.8563 2.97746 21.8671 2.95145C21.8779 2.92543 21.8834 2.89755 21.8834 2.86939C21.8834 2.84123 21.8779 2.81334 21.8671 2.78733C21.8563 2.76131 21.8405 2.73768 21.8206 2.71778ZM2.28498 11.9974C4.51623 7.38492 7.67962 5.19385 12.0002 5.19385C13.461 5.19385 14.7894 5.44457 15.9944 5.9543L14.1114 7.83733C13.2196 7.36152 12.1985 7.18493 11.1987 7.33362C10.199 7.4823 9.27343 7.94839 8.5587 8.66312C7.84398 9.37784 7.37789 10.3034 7.22921 11.3032C7.08052 12.3029 7.25711 13.324 7.73292 14.2158L5.49846 16.4503C4.26176 15.3588 3.19569 13.8799 2.28498 11.9974ZM8.89301 11.9974C8.89348 11.5251 9.00536 11.0595 9.21956 10.6386C9.43376 10.2176 9.74424 9.85311 10.1258 9.57468C10.5073 9.29625 10.9491 9.11175 11.4154 9.03616C11.8816 8.96058 12.3591 8.99603 12.8091 9.13966L9.03524 12.9135C8.94065 12.6174 8.89267 12.3083 8.89301 11.9974Z" fill="white"/>
<path d="M11.8935 15.0019C11.8008 15.0019 11.7095 14.9976 11.6189 14.9893L10.2041 16.4041C11.0551 16.73 11.9822 16.8024 12.8734 16.6126C13.7647 16.4228 14.5818 15.9789 15.2262 15.3346C15.8705 14.6902 16.3144 13.8731 16.5042 12.9818C16.694 12.0906 16.6216 11.1635 16.2957 10.3125L14.8809 11.7273C14.8892 11.8179 14.8935 11.9092 14.8935 12.0019C14.8937 12.3959 14.8162 12.7861 14.6655 13.1502C14.5149 13.5142 14.2939 13.845 14.0153 14.1237C13.7366 14.4023 13.4058 14.6233 13.0418 14.7739C12.6777 14.9246 12.2875 15.0021 11.8935 15.0019Z" fill="white"/>
</svg>
