<svg width="24" height="24" viewBox="0 0 24 24" fill="none" xmlns="http://www.w3.org/2000/svg">
<path d="M23.5234 11.3106C20.9841 5.9615 17.1457 3.26953 12.0002 3.26953C6.85194 3.26953 3.01623 5.9615 0.47694 11.3133C0.375089 11.529 0.322266 11.7645 0.322266 12.003C0.322266 12.2415 0.375089 12.4771 0.47694 12.6927C3.01623 18.0419 6.85462 20.7338 12.0002 20.7338C17.1484 20.7338 20.9841 18.0419 23.5234 12.6901C23.7296 12.2561 23.7296 11.7526 23.5234 11.3106ZM12.0002 18.8052C7.67962 18.8052 4.51623 16.6142 2.28498 12.0017C4.51623 7.38917 7.67962 5.1981 12.0002 5.1981C16.3207 5.1981 19.4841 7.38917 21.7153 12.0017C19.4868 16.6142 16.3234 18.8052 12.0002 18.8052ZM11.893 7.28739C9.28944 7.28739 7.17873 9.3981 7.17873 12.0017C7.17873 14.6052 9.28944 16.716 11.893 16.716C14.4966 16.716 16.6073 14.6052 16.6073 12.0017C16.6073 9.3981 14.4966 7.28739 11.893 7.28739ZM11.893 15.0017C10.235 15.0017 8.89301 13.6597 8.89301 12.0017C8.89301 10.3436 10.235 9.00167 11.893 9.00167C13.551 9.00167 14.893 10.3436 14.893 12.0017C14.893 13.6597 13.551 15.0017 11.893 15.0017Z" fill="white"/>
</svg>
