<svg width="24" height="24" viewBox="0 0 24 24" fill="none" xmlns="http://www.w3.org/2000/svg">
<path d="M22.1833 11.8358L12.5294 2.18895C12.4599 2.1193 12.3773 2.06404 12.2864 2.02634C12.1955 1.98864 12.0981 1.96924 11.9997 1.96924C11.9013 1.96924 11.8039 1.98864 11.713 2.02634C11.6221 2.06404 11.5395 2.1193 11.47 2.18895L1.81611 11.8358C1.53486 12.1171 1.37549 12.4991 1.37549 12.8975C1.37549 13.7249 2.04814 14.3975 2.87549 14.3975H3.89268V21.2811C3.89268 21.696 4.22783 22.0311 4.64268 22.0311H10.4997V16.7811H13.1247V22.0311H19.3567C19.7716 22.0311 20.1067 21.696 20.1067 21.2811V14.3975H21.1239C21.5224 14.3975 21.9044 14.2405 22.1856 13.9569C22.7692 13.371 22.7692 12.4218 22.1833 11.8358Z" fill="white"/>
</svg>
