<svg width="30" height="30" viewBox="0 0 30 30" fill="none" xmlns="http://www.w3.org/2000/svg">
<path d="M22.0997 5.16565V2.57748C22.0997 2.35315 21.8418 2.22927 21.6677 2.36654L6.57399 14.1556C6.44575 14.2553 6.34198 14.383 6.2706 14.529C6.19922 14.6749 6.16211 14.8352 6.16211 14.9977C6.16211 15.1601 6.19922 15.3205 6.2706 15.4664C6.34198 15.6123 6.44575 15.74 6.57399 15.8398L21.6677 27.6288C21.8452 27.7661 22.0997 27.6422 22.0997 27.4179V24.8297C22.0997 24.6657 22.0227 24.5083 21.8954 24.4078L9.84185 14.9994L21.8954 5.58753C22.0227 5.48708 22.0997 5.32971 22.0997 5.16565Z" fill="white"/>
</svg>
