<svg width="30" height="30" viewBox="0 0 30 30" fill="none" xmlns="http://www.w3.org/2000/svg">
<path d="M23.4944 14.157L8.40067 2.36797C8.36123 2.33692 8.31383 2.31762 8.26392 2.3123C8.21401 2.30697 8.1636 2.31583 8.1185 2.33786C8.07339 2.35989 8.03542 2.39419 8.00893 2.43683C7.98244 2.47947 7.96851 2.52871 7.96875 2.57891V5.16708C7.96875 5.33114 8.04576 5.48851 8.17299 5.58895L20.2266 15.0008L8.17299 24.4126C8.04241 24.5131 7.96875 24.6704 7.96875 24.8345V27.4227C7.96875 27.647 8.22657 27.7709 8.40067 27.6336L23.4944 15.8445C23.6227 15.7445 23.7265 15.6165 23.7979 15.4703C23.8693 15.324 23.9064 15.1635 23.9064 15.0008C23.9064 14.8381 23.8693 14.6775 23.7979 14.5313C23.7265 14.3851 23.6227 14.2571 23.4944 14.157Z" fill="white"/>
</svg>
