<?xml version="1.0" encoding="UTF-8"?>
<svg id="Layer_1" data-name="Layer 1" xmlns="http://www.w3.org/2000/svg" viewBox="0 0 1417.32 1620.44">
  <defs>
    <style>
      .cls-1 {
        fill: #fff;
      }
    </style>
  </defs>
  <g>
    <path class="cls-1" d="M689.77,416.01s371.9,157.07,225.89,413.08c-146.02,256.2-322.34,415.75-322.34,415.75,0,0,412.51-153.07,460.16-398.97,49.56-256.2-112.66-363.52-363.52-429.28v-.57h-.19Z"/>
    <path class="cls-1" d="M987.14,1033.25l104.84-181.47h154.4s16.77,234.28-239.42,393.83c0,0,114.56-158.98,109.42-254.86l-128.67,43.08-.57-.57h0Z"/>
    <circle class="cls-1" cx="800.33" cy="635.61" r="75.3"/>
  </g>
  <path class="cls-1" d="M862.29,176.78s-5.15,219.41-169.84,333.4c-137.63,95.31-181.47,115.14-166.6,157.07,18.68,50.9,93.98-33.55,171.18,25.16,48.99,37.36,138.96,209.11-526.31,751.63,0,0,515.44-579.11,450.44-646.02-50.9-52.04-95.88,21.16-171.75-30.88-54.14-36.6-54.71-196.34,85.02-268.97,262.49-136.49,279.26-206.63,327.49-321.77l.57.57h0l-.19-.19Z"/>
</svg>