<?xml version="1.0" encoding="UTF-8"?>
<svg id="Layer_1" data-name="Layer 1" xmlns="http://www.w3.org/2000/svg" xmlns:xlink="http://www.w3.org/1999/xlink" viewBox="0 0 248.69 109.55">
  <defs>
    <style>
      .cls-1, .cls-2, .cls-3, .cls-4, .cls-5 {
        fill: none;
      }

      .cls-2 {
        isolation: isolate;
        opacity: .1;
        stroke: url(#radial-gradient);
        stroke-miterlimit: 10;
      }

      .cls-2, .cls-3, .cls-4, .cls-5 {
        stroke-width: 1px;
      }

      .cls-3 {
        stroke: rgba(255, 255, 255, .12);
      }

      .cls-3, .cls-4 {
        stroke-linecap: round;
        stroke-linejoin: round;
      }

      .cls-4 {
        stroke: rgba(255, 255, 255, .04);
      }

      .cls-6 {
        clip-path: url(#clippath-1);
      }

      .cls-7 {
        clip-path: url(#clippath-2);
      }

      .cls-8 {
        fill: url(#radial-gradient-2);
        fill-opacity: .24;
      }

      .cls-9 {
        opacity: .2;
      }

      .cls-5 {
        stroke: rgba(255, 255, 255, .06);
      }

      .cls-10 {
        clip-path: url(#clippath);
      }
    </style>
    <clipPath id="clippath">
      <rect class="cls-1" x=".35" width="248" height="109.55"/>
    </clipPath>
    <clipPath id="clippath-1">
      <rect class="cls-1" x=".35" width="248" height="109.55"/>
    </clipPath>
    <clipPath id="clippath-2">
      <rect class="cls-1" x=".35" width="247.98" height="109.55"/>
    </clipPath>
    <radialGradient id="radial-gradient" cx="4077.54" cy="-539.14" fx="4077.54" fy="-539.14" r="1" gradientTransform="translate(728042.64 -59634.04) rotate(171.04) scale(178.6 -101)" gradientUnits="userSpaceOnUse">
      <stop offset="0" stop-color="#fff"/>
      <stop offset="1" stop-color="#fff" stop-opacity="0"/>
    </radialGradient>
    <radialGradient id="radial-gradient-2" cx="4083.4" cy="-665.39" fx="4083.4" fy="-665.39" r="1" gradientTransform="translate(21487.75 -168704.69) rotate(90) scale(41.33 -31.97)" xlink:href="#radial-gradient"/>
  </defs>
  <g class="cls-10">
    <g class="cls-6">
      <g class="cls-7">
        <g>
          <path class="cls-2" d="M176.77,108.55v-35.85M176.77,72.7h-35.28M176.77,72.7h35.28M176.77,72.7v-35.85M212.06,108.55v-35.85M212.06,72.7h35.28M212.06,72.7v-29.88M247.34,108.55v-35.85M247.34,72.7v-35.85M35.64,108.55v-35.85M35.64,72.7H.36M35.64,72.7h35.28M35.64,72.7v-35.85M70.93,108.55v-35.85M70.93,72.7h35.28M70.93,72.7v-25.26M106.21,108.55v-35.85M106.21,72.7h35.28M106.21,72.7v-35.85M130.9,108.55c10.58,0,10.58-10.76,10.58-10.76v.2c.13,10.56,10.58,10.56,10.58,10.56M35.64,36.85h24.69M35.64,36.85H.36M141.49,72.7v25.29M141.49,72.7v-35.85M106.21,36.85h-24.7M106.21,36.85h35.28M106.21,36.85V1M141.49,36.85h35.28M141.49,36.85V1M176.77,36.85V1M176.77,36.85h29.24M247.34,36.85V8.96c0-4.4-3.57-7.97-7.97-7.97h-27.32M247.34,36.85h-29.38M106.21,1h-35.28M106.21,1h35.28M106.21,1H.35M106.21,1h35.28M141.49,1h35.28M141.49,1h35.28M176.77,1h35.28M176.77,1h35.28M212.06,1v29.88M60.34,36.85s10.58,0,10.58,10.76v-.19c.06-1.43.82-10.57,10.58-10.57,0,0-10.42,0-10.58-10.51v-.25s0,10.76-10.58,10.76ZM.36,1h70.57M70.93,1v25.33"/>
          <g class="cls-9">
            <path class="cls-8" d="M211.99,21.91c-3.96,0-7.76,1.57-10.56,4.38-2.8,2.8-4.38,6.6-4.38,10.56,0,13.44,14.94,23.9,14.94,23.9,0,0,14.94-10.46,14.94-23.9,0-3.96-1.57-7.76-4.38-10.56-2.8-2.8-6.6-4.38-10.56-4.38ZM211.99,42.82c-1.18,0-2.34-.35-3.32-1.01-.98-.66-1.75-1.59-2.2-2.68-.45-1.09-.57-2.29-.34-3.45.23-1.16.8-2.22,1.63-3.06.84-.84,1.9-1.4,3.06-1.64,1.16-.23,2.36-.11,3.45.34,1.09.45,2.03,1.22,2.68,2.2.66.98,1.01,2.14,1.01,3.32,0,1.58-.63,3.1-1.75,4.23-1.12,1.12-2.64,1.75-4.22,1.75Z"/>
            <path class="cls-5" d="M212.33,59.88c-.13.1-.25.19-.34.26-.09-.07-.21-.15-.34-.26-.4-.31-.98-.76-1.67-1.35-1.39-1.18-3.24-2.89-5.08-5.01-3.71-4.26-7.35-10.12-7.35-16.67,0-3.83,1.52-7.5,4.23-10.21,2.71-2.71,6.38-4.23,10.21-4.23s7.5,1.52,10.21,4.23c2.71,2.71,4.23,6.38,4.23,10.21,0,6.54-3.64,12.4-7.35,16.67-1.85,2.12-3.7,3.83-5.08,5.01-.69.59-1.27,1.04-1.67,1.35ZM208.39,42.23c1.06.71,2.32,1.09,3.6,1.09,1.72,0,3.36-.68,4.58-1.9,1.21-1.21,1.9-2.86,1.9-4.58,0-1.28-.38-2.53-1.09-3.6-.71-1.06-1.72-1.89-2.91-2.38-1.18-.49-2.48-.62-3.74-.37-1.26.25-2.41.87-3.31,1.77-.91.91-1.52,2.06-1.77,3.31-.25,1.26-.12,2.56.37,3.74.49,1.18,1.32,2.19,2.38,2.91Z"/>
          </g>
          <path class="cls-3" d="M211.99,42.82c3.3,0,5.98-2.68,5.98-5.98s-2.68-5.98-5.98-5.98-5.98,2.68-5.98,5.98,2.68,5.98,5.98,5.98Z"/>
          <path class="cls-4" d="M226.92,36.85c0,13.44-14.94,23.9-14.94,23.9,0,0-14.94-10.46-14.94-23.9,0-3.96,1.57-7.76,4.38-10.56,2.8-2.8,6.6-4.38,10.56-4.38s7.76,1.57,10.56,4.38c2.8,2.8,4.38,6.6,4.38,10.56Z"/>
        </g>
      </g>
    </g>
  </g>
</svg>