<svg width="920" height="786" viewBox="0 0 920 786" fill="none" xmlns="http://www.w3.org/2000/svg">
<g clip-path="url(#clip0_274_512)">
<path d="M-213.312 783.86C-213.312 783.86 -415.195 569.183 -273.635 368.933C-220.811 294.208 -85.958 252.249 38.0058 286.29C111.229 306.395 222.276 303.428 330.782 126.2C478.748 -115.494 1093 -5.59338 973.101 417.866C922.595 596.239 1110.84 604.358 1017.59 784.24L-213.317 783.86H-213.312Z" fill="#EBF3FA"/>
<path d="M879.623 353.813L439.891 721.908L208.527 524.693C165.225 562.846 98.3459 621.741 31.0699 680.838C-14.9069 721.226 -52.1329 753.859 -82.3058 780.273L-292.443 780.027C-234.17 730.385 0.461517 524.078 158.535 384.652L206.869 342.023L440.746 541.384L784.028 254.021L879.623 353.807V353.813Z" fill="#D5E5FB"/>
<path d="M728.361 208.754L937.79 418.944L996.952 178.831L728.361 208.754Z" fill="#D5E5FB"/>
<path d="M41.815 651.642C41.0332 632.397 39.3466 615.651 37.3306 603.978C34.114 585.365 31.2157 574.659 31.1822 574.547C30.7578 572.91 24.6372 566.288 11.0279 566.489C-2.58147 566.696 -1.29146 575.38 -1.29146 575.38C-1.29146 575.67 -1.25237 575.944 -1.19653 576.151C-1.06809 576.598 11.4299 621.926 10.8882 680.447C10.8827 681.268 10.7877 682.687 10.8492 683.632C10.8492 683.632 42.3902 684.448 42.3958 683.632C43.4959 678.519 42.9598 664.343 41.815 651.642Z" fill="#B7D3F3"/>
<path d="M45.7793 680.162C45.7681 680.978 45.3382 681.631 44.8132 681.631H44.802C44.2771 681.62 43.8583 680.966 43.8527 680.162H16.8239C16.8127 680.978 16.3827 681.631 15.8578 681.631H15.8466C15.3105 681.62 14.8861 680.944 14.8973 680.117C15.0536 663.365 14.0987 647.719 12.6523 633.917C9.06152 599.485 2.41602 576.475 2.32108 576.156C2.25965 575.95 2.22612 575.676 2.22612 575.385C2.22612 575.385 0.936111 566.702 14.5454 566.495C28.1548 566.288 34.2809 572.915 34.7054 574.553C34.7277 574.636 36.3695 580.699 38.5475 591.601C39.2679 595.211 40.0497 599.351 40.8483 603.984C42.8643 615.662 44.5507 632.403 45.3326 651.647C46.4774 664.354 46.8794 675.055 45.7793 680.167V680.162Z" fill="#D2E3FC"/>
<path d="M12.8984 681.631H118.869C118.869 681.631 116.401 671.64 55.0332 673.127C11.6029 674.177 12.904 681.631 12.904 681.631H12.8984Z" fill="#C5DCF8"/>
<path d="M4.27539 786C16.5612 723.763 13.4004 685.571 13.3892 685.09C13.3557 684.135 15.126 683.263 16.0753 683.229C17.0358 683.213 21.28 682.945 21.7659 683.766C22.4081 684.839 24.882 731.893 6.5706 786H4.27539Z" fill="#B7D3F3"/>
<path d="M103.216 786C90.9304 723.763 94.0912 685.571 94.1024 685.09C94.1359 684.135 92.3656 683.263 91.4162 683.229C90.4557 683.213 86.2115 682.945 85.7257 683.766C85.0835 684.839 82.6095 731.893 100.921 786H103.216Z" fill="#B7D3F3"/>
<path d="M122.824 786C110.538 723.763 113.699 685.571 113.71 685.09C113.743 684.135 111.973 683.263 111.024 683.229C110.063 683.213 105.819 682.945 105.333 683.766C104.691 684.839 102.217 731.893 120.528 786H122.824Z" fill="#B7D3F3"/>
<path d="M24.0117 786C36.2975 723.763 33.1367 685.571 33.1256 685.09C33.0921 684.135 34.8623 683.263 35.8117 683.229C36.7722 683.213 41.0164 682.945 41.5022 683.766C42.1445 684.839 44.6184 731.893 26.3069 786H24.0117Z" fill="#B7D3F3"/>
<path d="M12.9595 679.044H118.93C120.131 679.044 121.102 680.016 121.102 681.218V682.643C121.102 683.844 120.131 684.816 118.93 684.816H12.9595C11.7588 684.816 10.7871 683.844 10.7871 682.643V681.212C10.7871 680.011 11.7588 679.039 12.9595 679.039V679.044Z" fill="#B7D3F3"/>
<path d="M115.212 589.059L150.439 581.426L152.511 586.483C152.511 586.483 113.643 609.622 110.002 608.493C106.361 607.359 115.212 589.059 115.212 589.059Z" fill="#FFB27D"/>
<path d="M83.1848 748.467C82.3024 749.478 82.1907 750.607 82.6263 751.814C82.6263 751.814 82.6263 751.825 82.6375 751.831C83.4472 754.066 86.111 756.558 89.2104 759.044C89.6069 759.363 89.9587 759.653 90.2659 759.927C90.344 760 90.4278 760.067 90.5004 760.14C90.5618 760.196 90.6233 760.251 90.6847 760.302C93.5719 762.967 92.4885 763.576 97.6764 768.985C103.596 775.148 107.673 775.26 108.829 774.696C109.811 774.215 107.818 770.946 105.606 767.275C105.5 767.096 105.394 766.918 105.282 766.739C104.987 766.253 104.696 765.755 104.406 765.264C101.82 760.844 102.485 758.771 103.093 752.188C103.59 746.841 111.409 722.316 111.409 722.316L100.067 720.36C100.067 720.36 96.6489 739.89 92.885 742.896C90.8746 744.499 88.6184 744.522 86.6862 745.706C86.5522 745.79 86.4182 745.874 86.2841 745.963C85.184 746.69 84.0671 747.444 83.1792 748.461L83.1848 748.467Z" fill="#FFB27D"/>
<path d="M83.1848 748.467C82.3024 749.478 82.1907 750.607 82.6263 751.814C82.6263 751.814 82.6263 751.825 82.6375 751.831C83.6259 754.06 86.2283 756.541 89.2216 759.022C89.6125 759.346 89.9587 759.648 90.2659 759.927C90.344 760 90.4278 760.067 90.5004 760.14C90.5618 760.196 90.6233 760.251 90.6847 760.302C93.5719 762.967 92.4885 763.576 97.6764 768.985C103.596 775.148 107.673 775.26 108.829 774.696C109.811 774.215 107.818 770.946 105.606 767.275C104.456 766.851 99.1005 764.677 95.0573 759.497C91.4945 754.949 89.1154 749.098 86.6862 745.712C86.5522 745.796 86.4182 745.88 86.2841 745.969C85.184 746.695 84.0671 747.45 83.1792 748.467H83.1848Z" fill="#1C468A"/>
<path d="M174.653 741.376C175.351 744.879 180.343 744.293 185.922 742.929C191.501 741.566 190.172 743.186 198.107 742.309C206.043 741.432 208.45 738.47 208.69 737.286C208.908 736.235 204.987 735.866 200.777 735.386C200.246 735.324 199.716 735.263 199.185 735.196C194.438 734.598 190.959 731.536 186.642 729.016C182.555 726.63 176.456 716.913 176.456 716.913L165.572 717.773C165.572 717.773 171.285 726.451 173.491 730.228C174.792 732.447 174.72 735.38 174.558 737.649C174.474 738.878 174.396 740.141 174.641 741.376H174.653Z" fill="#FFB27D"/>
<path d="M185.915 742.935C191.494 741.571 190.165 743.192 198.101 742.315C206.036 741.437 208.443 738.476 208.683 737.291C208.901 736.241 204.981 735.872 200.77 735.391L200.731 735.47C200.731 735.47 195.973 738.845 189.367 739.007C183.983 739.135 178.281 737.593 174.562 737.654C174.478 738.884 174.4 740.147 174.646 741.382C175.344 744.885 180.336 744.298 185.915 742.935Z" fill="#1C468A"/>
<path d="M150.434 581.426C150.434 581.426 153.025 575.067 155.878 574.81C158.732 574.553 167.807 573.122 168.455 574.419C169.102 575.715 168.455 580.386 166.511 582.074C164.568 583.761 152.511 586.483 152.511 586.483L150.439 581.426H150.434Z" fill="#FFB27D"/>
<path d="M132.941 671.741L109.486 734.905C109.486 734.905 105.884 735.252 102.428 734.257C99.2502 733.341 95.6035 730.932 95.6035 730.932C95.6035 730.932 101.423 670.283 112.089 657.671C122.755 645.054 132.941 671.741 132.941 671.741Z" fill="#163560"/>
<path d="M40.1677 646.188C40.1677 646.188 107.567 623.384 122.6 628.235C137.633 633.085 182.767 722.936 182.767 722.936C182.767 722.936 181.75 724.294 178.969 725.333C176.384 726.306 170.124 726.239 170.124 726.239C170.124 726.239 129.391 691.304 124.543 681.117C119.696 670.931 117.753 661.225 112.905 662.197C108.058 663.169 50.3538 685.973 37.2638 672.384C24.1738 658.8 27.5971 641.148 27.5971 641.148L40.1733 646.182L40.1677 646.188Z" fill="#1C468A"/>
<path d="M78.5882 485.388C75.6731 483.734 72.1829 483.55 69.7425 483.695C70.3735 483.047 71.6077 482.807 71.6077 482.807C70.0943 482.583 66.7157 484.086 66.7157 484.086C45.6511 475.967 42.3395 507.002 42.7807 514.21C43.2219 521.418 43.2721 529.716 32.7566 536.187C12.0662 548.91 29.5232 571.122 29.5232 571.122C29.6851 571.217 39.1508 587.276 39.1508 587.276C38.6203 581.448 65.4871 550.704 79.5041 541.495C82.9162 536.466 84.128 527.587 84.2174 526.889C83.631 533.929 82.4248 537.88 81.347 540.104C93.2139 529.174 86.306 489.78 78.5827 485.388H78.5882Z" fill="#B5453C"/>
<path d="M78.6781 541.954C78.7507 541.987 71.9098 545.535 66.7665 544.133C61.9303 542.814 58.7695 536.533 58.831 536.522C60.8805 536.114 61.4724 533.298 61.4277 521.189L62.3548 521.374L77.9298 524.458C77.9298 524.458 77.578 529.364 77.5668 533.98C77.5557 537.858 77.7902 541.54 78.6781 541.954Z" fill="#FFB27D"/>
<path d="M77.9305 524.458C77.9305 524.458 77.5787 529.364 77.5675 533.98C68.8502 533.734 64.2486 525.777 62.3555 521.368L77.9305 524.453V524.458Z" fill="#ED975D"/>
<path d="M60.7472 519.675C60.7472 519.675 56.1791 512.456 55.0845 506.281C54.3027 501.872 56.5477 485.534 72.9548 487.886C72.9548 487.886 77.7184 488.355 82.2027 491.384C85.7656 493.792 90.9088 498.989 85.1568 513.249L83.6658 518.066L60.7527 519.675H60.7472Z" fill="#B5453C"/>
<path d="M80.8401 528.833C80.8401 528.833 60.2223 529.174 60.2055 516.322C60.1888 503.47 57.5194 494.86 70.6876 494.1C83.8501 493.34 86.4134 498.24 87.4633 502.532C88.5131 506.823 86.2068 528.42 80.8401 528.839V528.833Z" fill="#FFB27D"/>
<path d="M80.0805 493.781C80.0805 493.781 74.4346 508.857 65.7731 511.087C57.106 513.316 53.3477 510.992 53.3477 510.992C53.3477 510.992 59.9932 505.711 61.3725 496.486C61.3725 496.486 75.8195 486.601 80.0805 493.776V493.781Z" fill="#B5453C"/>
<path d="M78.6777 495.005C78.6777 495.005 82.894 498.369 83.9215 501.643C84.9491 504.918 85.4126 511.651 87.3727 511.422C87.3727 511.422 91.6281 501.174 86.8478 495.374C81.7771 489.227 78.6777 494.999 78.6777 494.999V495.005Z" fill="#B5453C"/>
<path d="M32.7635 597.463C30.7308 588.93 37.6499 572.373 44.8706 558.661C51.4212 546.234 58.223 536.159 58.8373 536.522C76.1212 546.787 77.6793 538.254 77.6793 538.254C77.6793 538.254 93.3772 540.339 97.8224 547.994C103.334 557.493 109.293 584.035 115.212 589.064C114.302 591.847 114.693 593.328 115.659 596.775C115.866 597.513 116.095 598.217 116.346 598.882C117.24 601.307 118.351 603.274 119.317 604.984C116.307 606.811 110.499 610.292 106.221 607.789C99.6988 603.967 94.6058 592.339 91.741 587.706C91.7298 587.69 91.7187 587.673 91.7075 587.656C85.4808 622.921 93.9468 630.956 89.6636 634.672C85.1401 638.6 78.6734 632.8 64.4497 638.969C55.1181 643.02 42.1733 648.876 33.456 649.893C28.8823 650.429 25.4758 649.636 24.3645 646.546C21.1311 637.572 36.6503 613.729 32.7691 597.463H32.7635Z" fill="#1C468A"/>
<path d="M76.2539 521.044C76.2539 521.044 76.6392 522.676 80.6991 522.424C80.6991 522.424 84.1057 522.212 84.0051 520.418C84.0051 520.418 80.6991 519.144 76.2595 521.044H76.2539Z" fill="white"/>
<path d="M24.3586 646.546C25.4699 649.636 28.8821 650.429 33.4501 649.893C39.4814 647.261 65.544 637.158 65.2536 630.319C64.818 620.182 60.2444 619.858 63.4778 607.353C66.0745 597.312 41.9944 578.632 38.1522 574.575C30.9315 588.282 30.7305 588.93 32.7632 597.462C36.6444 613.729 21.1252 637.572 24.3586 646.546Z" fill="#163560"/>
<path d="M21.4094 609.996C26.0333 603.503 30.8471 600.067 34.0135 598.34C33.2819 596.462 53.453 571.72 53.453 567.886C53.453 564.053 58.8364 536.517 58.8364 536.517C58.8364 536.517 42.0327 537.556 36.2137 545.675C28.9372 555.828 13.8256 594.909 21.4149 609.996H21.4094Z" fill="#1C468A"/>
<path d="M34.0126 598.34L67.5919 607.107L64.4423 612.767C64.4423 612.767 23.5752 612.482 21.4084 609.99C19.2417 607.504 34.0126 598.334 34.0126 598.334V598.34Z" fill="#FFB27D"/>
<path d="M91.7344 587.706C94.5992 592.339 99.6866 603.967 106.215 607.789C110.493 610.286 116.3 606.811 119.31 604.984C118.35 603.274 117.233 601.307 116.339 598.882C113.938 599.429 111.012 600.134 109.119 600.703C105.444 601.815 91.7344 587.712 91.7344 587.712V587.706Z" fill="#163560"/>
<path d="M67.5927 607.107C67.5927 607.107 78.1362 604.123 80.6492 604.822C83.1622 605.52 91.7678 611.22 90.556 612.773C89.3442 614.321 81.7661 611.846 78.2758 612.315C74.7855 612.784 72.0882 614.505 69.5752 614.131C67.0622 613.757 64.4375 612.773 64.4375 612.773L67.5871 607.113L67.5927 607.107Z" fill="#FFB27D"/>
<path d="M67.5938 607.107C67.5938 607.107 72.7538 604.453 74.2225 602.944C74.4068 602.754 74.7195 602.793 74.8647 603.017C75.2556 603.637 75.6242 604.838 73.8148 606.029C71.2125 607.744 67.5938 607.107 67.5938 607.107Z" fill="#FFB27D"/>
<path d="M116.328 621.954H67.1289C67.1289 619.786 68.8824 618.031 71.0492 618.031H116.328V621.954Z" fill="#ED7D2B"/>
<path d="M116.189 568.339H192.255L174.01 621.954H97.4473L116.189 568.339Z" fill="#ED7D2B"/>
<path d="M193.378 568.339L175.128 621.954H98.5703L117.306 568.339H193.378Z" fill="#F99746"/>
<path d="M152.365 594.652C151.89 596.703 149.852 598.362 147.802 598.362C145.753 598.362 144.48 596.703 144.949 594.652C145.423 592.601 147.462 590.942 149.511 590.942C151.561 590.942 152.834 592.601 152.365 594.652Z" fill="#F9DDBF"/>
<path d="M193.377 568.339L175.127 621.954H124.426C158.011 610.482 166.951 575.508 168.454 568.339H193.377Z" fill="#ED893E"/>
<path d="M-27.4555 786C-26.4949 786 -25.6684 785.324 -25.5065 784.402L-15.9515 730.217L-2.20815 652.29L1.63396 630.497L-8.15558 630.218L-9.85328 642.869L-21.7761 731.765L-28.846 784.458C-28.9521 785.273 -28.3043 786 -27.4555 786Z" fill="#95C0F4"/>
<path d="M-9.85938 642.869C-3.51543 645.668 -2.21425 652.29 -2.21425 652.29L1.62786 630.497L-8.16168 630.218L-9.85938 642.869Z" fill="#78ACEA"/>
<path d="M215.994 786C215.033 786 214.207 785.324 214.045 784.402L204.49 730.217L190.746 652.29L186.904 630.497L196.694 630.218L198.392 642.869L210.314 731.765L217.384 784.458C217.49 785.273 216.843 786 215.994 786Z" fill="#95C0F4"/>
<path d="M198.392 642.869C192.053 645.668 190.746 652.29 190.746 652.29L186.904 630.497L196.694 630.218L198.392 642.869Z" fill="#78ACEA"/>
<path d="M216.663 639.052H-33.9842C-37.2791 639.052 -39.954 636.376 -39.954 633.079V627.916C-39.954 624.619 -37.2791 621.942 -33.9842 621.942H216.663C219.958 621.942 222.633 624.619 222.633 627.916V633.079C222.633 636.376 219.958 639.052 216.663 639.052Z" fill="#78ACEA"/>
<path d="M-382.325 781.563H1091.33C1092.25 781.563 1093.01 782.312 1093.01 783.24V783.81C1093.01 784.732 1092.26 785.486 1091.33 785.486H-382.325C-383.246 785.486 -384 784.737 -384 783.81V783.24C-384 782.318 -383.252 781.563 -382.325 781.563Z" fill="#2E3552"/>
<path d="M588.596 612.823C588.596 612.823 582.095 620.892 584.128 621.993C586.161 623.094 591.533 625.15 592.801 623.854C594.068 622.557 594.465 613.047 594.465 613.047L588.601 612.823H588.596Z" fill="#FFB27D"/>
<path d="M588.857 612.958C588.857 612.958 586.199 613.88 585.155 615.265C584.111 616.651 581.799 618.758 582.363 619.344C582.927 619.931 586.25 617.344 586.25 617.344L588.857 612.958Z" fill="#FFB27D"/>
<path d="M613.172 505.074C613.172 505.074 605.845 573.34 605.192 575.285C605.052 575.709 604.477 577.866 603.667 580.979C602.512 585.421 600.886 591.802 599.34 597.865C597.005 607.029 594.866 615.489 594.866 615.489L588.506 613.393C588.506 613.393 588.176 580.219 589.812 572.58C591.454 564.936 596.687 518.004 599.328 511.69C601.97 505.376 613.178 505.08 613.178 505.08L613.172 505.074Z" fill="#AEC3FF"/>
<path d="M597.933 668.774L557.965 658.286C552.765 656.922 549.621 651.547 550.984 646.339L555.524 629.006C556.887 623.798 562.259 620.658 567.464 622.021L607.432 632.509C612.631 633.873 615.775 639.248 614.407 644.456L609.867 661.789C608.504 666.997 603.132 670.137 597.927 668.774H597.933Z" fill="#A02E2E"/>
<path d="M560.802 630.38L556.206 647.915C555.318 651.312 556.335 654.777 558.585 657.163C559.334 657.956 560.216 658.627 561.21 659.141C561.83 659.465 562.494 659.722 563.198 659.906L603.099 670.372C608.32 671.741 613.709 668.59 615.083 663.365L619.679 645.831C621.047 640.606 617.898 635.208 612.676 633.839L598.939 630.235L599.921 626.497C600.374 624.77 599.335 622.993 597.609 622.541L596.102 622.144L587.747 619.954L585.67 619.412C584.838 619.194 583.961 619.311 583.213 619.747C582.464 620.183 581.934 620.887 581.716 621.719L580.733 625.457L572.775 623.368C572.457 623.284 572.15 623.222 571.832 623.172C571.832 623.172 571.832 623.172 571.826 623.172C568.626 622.664 565.46 623.798 563.282 626.005C562.12 627.184 561.243 628.67 560.791 630.38H560.802ZM596.984 629.721L582.705 625.977L583.687 622.239C583.855 621.596 584.519 621.205 585.162 621.378L588.747 622.317L595.325 624.044L597.101 624.513C597.224 624.547 597.336 624.597 597.436 624.658C597.872 624.932 598.101 625.469 597.967 625.988L596.99 629.727L596.984 629.721Z" fill="#BC3F3F"/>
<path d="M592.392 624.033C592.392 624.033 594.168 621.043 593.503 619.998C592.839 618.953 590.443 623.099 590.443 623.099C590.443 623.099 592.079 619.54 591.471 618.953C590.862 618.367 588.355 622.457 588.355 622.457C588.355 622.457 589.913 618.998 589.365 618.881C588.818 618.763 586.959 621.786 586.959 621.786C586.959 621.786 587.925 619.199 587.042 619.322C586.16 619.445 584.25 621.809 584.25 621.809L592.392 624.033Z" fill="#FFB27D"/>
<path d="M603.662 580.979C602.506 585.421 600.881 591.802 599.334 597.865C598.334 595.06 597.072 590.595 596.268 584.477C594.793 573.178 599.322 549.112 599.322 549.112L603.662 580.979Z" fill="#9DB0F4"/>
<path d="M687.508 610.018C687.508 610.018 694.595 615.779 695.471 617.579C696.348 619.378 698.548 626.038 698.431 628.184C698.314 630.33 693.003 623.273 691.439 622.703C689.881 622.133 693.07 625.603 692.713 626.346C692.355 627.089 689.032 624.658 687.759 623.865C686.492 623.071 685.598 617.685 683.71 614.751C681.823 611.818 687.502 610.018 687.502 610.018H687.508Z" fill="#FFB27D"/>
<path d="M594.52 782.48H629.847C632.377 780.764 629.166 763.967 629.166 763.967C629.166 763.967 619.521 760.307 617.857 767.75C616.187 775.188 605.577 777.557 599.959 778.462C596.117 779.088 594.899 781.2 594.52 782.474V782.48Z" fill="#233862"/>
<path d="M646.92 782.48H682.247C684.777 780.764 681.566 763.967 681.566 763.967C681.566 763.967 671.921 760.307 670.257 767.75C668.588 775.188 657.977 777.557 652.359 778.462C648.517 779.088 647.3 781.2 646.92 782.474V782.48Z" fill="#233862"/>
<path d="M604.025 611.164C604.025 611.164 605.611 630.989 607.482 654.816C610.017 687.186 616.858 767.443 616.858 767.443C616.858 767.443 621.343 771.271 631.277 769.175C631.277 769.175 639.732 741.488 642.262 709.883C642.301 709.364 642.34 708.844 642.379 708.319C644.73 676.15 648.388 608.404 648.388 608.404L604.02 611.153L604.025 611.164Z" fill="#2B478B"/>
<path d="M603.484 604.313C603.484 604.313 605.612 630.989 607.483 654.816L642.268 709.889C642.308 709.369 642.347 708.849 642.386 708.324C644.737 676.155 648.395 608.409 648.395 608.409L603.484 604.308V604.313Z" fill="#233862"/>
<path d="M613.625 604.313C613.625 604.313 638.855 667.153 646.919 690.969C652.666 707.939 668.866 767.454 668.866 767.454C668.866 767.454 675.914 769.6 681.833 765.454C681.833 765.454 687.859 704.642 675.685 687.499C669.224 678.402 674.076 592.931 647.885 592.199C621.694 591.467 613.619 604.308 613.619 604.308L613.625 604.313Z" fill="#2B478B"/>
<path d="M661.702 610.018C651.181 615.958 606.115 615.824 604.026 611.164C599.363 600.754 598.196 547.865 600.396 531.639C600.396 531.639 601.535 506.706 604.026 507.807C620.673 500.151 647.618 507.103 647.618 507.103C654.884 509.243 654.258 525.855 656.285 549.184C656.548 552.19 656.833 555.325 657.157 558.56C658.592 572.966 660.675 589.517 663.847 606.973C664.059 608.124 663.26 609.141 661.697 610.018H661.702Z" fill="#AEC3FF"/>
<path d="M635.171 504.298C634.891 508.757 629.078 508.254 622.086 506.656C615.1 505.063 617.63 500.939 617.63 500.939C617.63 500.939 617.73 497.771 618.177 493.977C618.339 492.597 618.54 491.127 618.803 489.702C618.925 489.004 619.065 488.317 619.221 487.652C620.132 483.729 633.183 487.512 633.088 488.568C632.831 491.418 634.891 500.794 635.171 504.298Z" fill="#FFB27D"/>
<path d="M620.186 512.081L619.639 505.924L627.373 507.382L624.397 512.88L620.186 512.081Z" fill="#233862"/>
<path d="M617.796 498.039L613.172 505.074C613.172 505.074 613.172 509.399 617.182 512.539L623.503 506.65C623.503 506.65 619.415 505.091 617.796 498.039Z" fill="#9DB0F4"/>
<path d="M623.504 506.65C623.504 506.65 624.816 511.355 627.346 513.512C627.346 513.512 637.214 510.858 639.57 505.795L634.427 499.157C634.427 499.157 634.176 504.18 623.504 506.65Z" fill="#9DB0F4"/>
<path d="M633.165 490.786C633.165 490.786 626.882 494.966 618.176 493.977C618.338 492.597 618.539 491.127 618.801 489.702C620.521 489.283 621.956 489.026 621.956 489.026L633.159 490.792L633.165 490.786Z" fill="#E2915A"/>
<path d="M637.152 486.037C634.081 494.491 622.879 492.334 618.104 490.976C616.758 490.596 615.926 490.278 615.926 490.278C614.452 489.607 613.994 487.031 614.122 483.779C614.379 477.342 616.914 468.256 618.377 466.066C620.572 462.769 624.23 459.422 635.097 464.088C645.97 468.754 641.084 475.202 637.147 486.037H637.152Z" fill="#FFB27D"/>
<path d="M645.546 481.695C642.117 484.494 634.746 489.674 634.746 489.674C634.746 489.674 635.567 488.702 636.567 485.908C636.678 485.59 636.717 485.126 636.701 484.634C636.656 483.265 636.991 481.896 637.706 480.728C638.153 479.996 638.32 479.242 637.75 478.705C636.818 477.823 635.226 478.633 634.188 479.348C633.501 479.817 632.596 479.845 631.887 479.404C631.887 479.404 631.876 479.404 631.876 479.398C628.944 477.56 632.177 474.325 629.798 471.637C627.414 468.949 617.105 468.58 617.518 466.898C614 464.909 616.217 457.567 616.284 457.176C616.284 457.176 621.338 457.623 627.643 456.047C632.764 454.762 638.409 458.053 640.196 459.405C640.196 459.081 640.141 458.629 639.912 458.154C639.912 458.154 640.688 458.919 640.671 459.813C640.749 459.891 640.783 459.947 640.76 459.958C640.76 459.958 641.782 459.936 642.374 460.333C642.374 460.333 641.939 460.193 641.732 460.456C641.71 460.484 641.676 460.506 641.643 460.523C648.495 465.367 648.394 479.359 645.546 481.689V481.695Z" fill="#233862"/>
<path d="M620.94 484.813C620.94 484.813 620.387 485.88 617.617 484.997C617.617 484.997 615.289 484.254 615.674 483.03C615.674 483.03 618.187 482.723 620.934 484.819L620.94 484.813Z" fill="white"/>
<path d="M620.188 512.081C620.188 512.081 614.017 590.131 614.1 596.636C614.184 603.14 620.941 610.018 620.941 610.018C620.941 610.018 626.325 604.123 627.375 597.904C628.425 591.685 624.398 512.886 624.398 512.886L620.188 512.087V512.081Z" fill="#2A4E96"/>
<path d="M647.623 507.108C647.623 507.108 657.586 509.494 665.465 524.637C673.345 539.78 679.566 570.317 683.324 578.38C687.088 586.443 689.663 611.829 689.663 611.829L683.71 614.751C683.71 614.751 669.33 588.734 667.208 580.202C666.057 575.586 648.477 538.634 648.477 538.634L647.623 507.108Z" fill="#AEC3FF"/>
<path d="M661.702 610.018H661.691C642.927 607.314 648.305 545.183 649.779 544.938C651.253 544.692 656.648 556.046 656.648 556.046L657.162 558.566C658.597 572.971 660.68 589.522 663.852 606.979C664.064 608.13 663.265 609.147 661.702 610.024V610.018Z" fill="#9DB0F4"/>
<path d="M895.802 745.751C895.802 745.751 903.615 752.887 902.09 757.955C900.566 763.023 893.518 766.404 892.563 772.6C891.608 778.797 887.8 782.172 884.371 782.172H868.02C868.02 782.172 865.496 777.814 871.594 776.501C877.692 775.188 879.993 767.907 879.607 761.151C879.228 754.395 880.177 745.382 880.177 745.382L893.133 742.376L895.802 745.757V745.751Z" fill="#233862"/>
<path d="M799.956 764.202C799.956 764.202 801.358 780.434 797.929 782.128L754.035 782.038C754.035 782.038 754.035 776.97 761.083 775.841C768.13 774.713 780.517 770.583 782.616 761.386C784.711 752.188 799.956 764.202 799.956 764.202Z" fill="#233862"/>
<path d="M762.902 534.868C762.902 534.868 765.22 563.327 767.94 597.535C771.636 644.003 776.087 701.082 776.523 711.895C777.282 730.67 780.337 760.704 780.337 760.704C780.337 760.704 787.575 767.84 802.061 764.833C802.061 764.833 814.966 721.958 818.652 676.591C818.708 675.848 818.769 675.099 818.825 674.35C822.254 628.167 827.587 530.923 827.587 530.923L762.902 534.868Z" fill="#2A4E96"/>
<path d="M762.902 534.868C762.902 534.868 765.22 563.327 767.94 597.535L818.652 676.597C818.708 675.853 818.769 675.105 818.825 674.356C822.254 628.173 827.587 530.929 827.587 530.929L762.902 534.874V534.868Z" fill="#233862"/>
<path d="M773.475 538.249C773.475 538.249 815.202 641.31 842.644 689.745C870.08 738.18 878.658 751.697 878.658 751.697C878.658 751.697 894.378 745.5 895.808 741.275C895.808 741.275 885.315 647.769 866.942 624.977C856.56 612.097 847.603 583.521 848.055 569.999C848.826 546.681 840.075 519.658 840.075 519.658L773.48 538.243L773.475 538.249Z" fill="#2A4E96"/>
<path d="M740.151 539.763C740.151 539.763 732.361 550.318 731.786 553.135C731.211 555.951 730.54 566.009 731.473 568.954C732.406 571.898 737.264 560.17 739.23 558.817C741.196 557.465 738.001 563.433 738.766 564.344C739.531 565.249 743.284 560.678 744.764 559.114C746.244 557.555 745.551 549.737 747.126 544.982C748.707 540.227 740.151 539.763 740.151 539.763Z" fill="#FFB27D"/>
<path d="M774.512 386.362C774.512 386.362 763.985 484.433 763.047 487.227C762.84 487.836 762.019 490.937 760.852 495.407C759.194 501.789 756.854 510.953 754.631 519.669C751.281 532.834 747.662 544.222 747.662 544.222C747.662 544.222 746.07 545.25 742.239 544.926C739.626 544.703 738.213 542.468 738.213 542.468C738.213 542.468 738.598 494.318 740.944 483.343C743.3 472.363 750.817 404.941 754.62 395.867C758.412 386.792 774.512 386.367 774.512 386.367V386.362Z" fill="white"/>
<path d="M760.854 495.402C759.195 501.783 756.855 510.947 754.633 519.664C753.203 515.635 751.382 509.22 750.232 500.431C748.116 484.198 754.621 449.626 754.621 449.626L760.854 495.407V495.402Z" fill="#DCEAFF"/>
<path d="M844.229 537.12C829.117 545.653 764.371 545.463 761.372 538.763C754.671 523.81 752.995 447.827 756.156 424.521C756.156 424.521 757.792 388.703 761.372 390.284C785.285 379.293 823.996 389.273 823.996 389.273C834.433 392.352 833.54 416.212 836.449 449.727C836.824 454.046 837.237 458.55 837.706 463.199C839.767 483.896 842.76 507.667 847.317 532.745C847.618 534.399 846.474 535.857 844.229 537.12Z" fill="white"/>
<path d="M806.11 385.244C805.708 391.653 797.359 390.927 787.318 388.63C777.283 386.345 780.913 380.416 780.913 380.416C780.913 380.416 781.058 375.862 781.695 370.409C781.929 368.425 782.214 366.318 782.6 364.268C782.778 363.267 782.974 362.278 783.197 361.323C784.509 355.685 803.256 361.127 803.122 362.641C802.754 366.732 805.719 380.204 806.11 385.238V385.244Z" fill="#FFB27D"/>
<path d="M784.592 396.425L783.799 387.574L794.912 389.675L790.634 397.576L784.592 396.425Z" fill="#233862"/>
<path d="M781.152 376.253L774.512 386.362C774.512 386.362 774.512 392.581 780.275 397.09L789.355 388.63C789.355 388.63 783.486 386.39 781.152 376.259V376.253Z" fill="#DCEAFF"/>
<path d="M789.355 388.625C789.355 388.625 791.237 395.38 794.873 398.482C794.873 398.482 809.052 394.665 812.43 387.401L805.048 377.863C805.048 377.863 804.69 385.077 789.355 388.625Z" fill="#DCEAFF"/>
<path d="M803.227 365.832C803.227 365.832 794.203 371.839 781.699 370.414C781.934 368.431 782.219 366.324 782.604 364.273C785.072 363.675 787.138 363.301 787.138 363.301L803.233 365.832H803.227Z" fill="#E2915A"/>
<path d="M808.957 359.009C804.546 371.157 788.446 368.056 781.594 366.106C779.661 365.558 778.466 365.106 778.466 365.106C776.35 364.145 775.691 360.446 775.875 355.774C776.238 346.526 779.89 333.473 781.985 330.327C785.134 325.595 790.389 320.778 806.009 327.483C821.629 334.189 814.615 343.453 808.957 359.015V359.009Z" fill="#FFB27D"/>
<path d="M821.015 352.773C816.084 356.797 805.495 364.24 805.495 364.24C805.495 364.24 806.674 362.848 808.114 358.831C808.276 358.372 808.332 357.708 808.31 356.998C808.249 355.031 808.723 353.064 809.756 351.388C810.404 350.337 810.633 349.253 809.818 348.482C808.477 347.214 806.193 348.376 804.697 349.404C803.708 350.08 802.413 350.119 801.396 349.488C801.391 349.488 801.385 349.482 801.38 349.477C797.169 346.839 801.815 342.19 798.398 338.329C794.969 334.468 780.159 333.943 780.751 331.518C775.691 328.662 778.88 318.112 778.975 317.554C778.975 317.554 786.229 318.196 795.293 315.933C802.647 314.084 810.756 318.811 813.325 320.761C813.325 320.297 813.247 319.644 812.917 318.962C812.917 318.962 814.028 320.063 814.012 321.348C814.123 321.46 814.174 321.538 814.14 321.56C814.14 321.56 815.609 321.532 816.463 322.097C816.463 322.097 815.838 321.901 815.542 322.275C815.508 322.32 815.464 322.348 815.413 322.376C825.259 329.333 825.114 349.438 821.026 352.785L821.015 352.773Z" fill="#BC3F3F"/>
<path d="M785.671 357.255C785.671 357.255 784.878 358.786 780.896 357.518C780.896 357.518 777.551 356.45 778.11 354.69C778.11 354.69 781.723 354.249 785.671 357.255Z" fill="white"/>
<path d="M784.592 396.425C784.592 396.425 775.724 508.555 775.847 517.898C775.97 527.241 785.67 537.12 785.67 537.12C785.67 537.12 793.399 528.655 794.912 519.714C796.42 510.774 790.635 397.576 790.635 397.576L784.587 396.425H784.592Z" fill="#2A4E96"/>
<path d="M844.229 537.12H844.212C817.256 533.237 824.979 443.977 827.096 443.625C829.212 443.273 836.964 459.578 836.964 459.578L837.706 463.199C839.767 483.896 842.76 507.667 847.317 532.745C847.619 534.399 846.474 535.857 844.229 537.12Z" fill="#DCEAFF"/>
<path d="M923.467 603.615L866.467 620.21C859.05 622.373 851.21 618.065 849.054 610.644L841.867 585.929C839.706 578.509 844.012 570.664 851.428 568.507L908.428 551.911C915.844 549.749 923.685 554.057 925.841 561.477L933.028 586.192C935.189 593.613 930.883 601.458 923.467 603.615Z" fill="#A02E2E"/>
<path d="M849.379 583.722L856.65 608.722C858.057 613.561 861.871 617.081 866.406 618.361C867.908 618.786 869.494 618.964 871.102 618.858C871.102 618.858 871.104 618.858 871.108 618.858C872.108 618.797 873.118 618.623 874.124 618.327L931.018 601.76C938.462 599.592 942.784 591.724 940.618 584.275L933.347 559.27C931.174 551.822 923.311 547.497 915.867 549.665L896.277 555.37L894.725 550.033C894.01 547.569 891.419 546.15 888.956 546.865L886.806 547.491L874.889 550.961L871.929 551.827C870.739 552.174 869.751 552.967 869.153 554.057C868.556 555.152 868.416 556.409 868.763 557.599L870.315 562.936L858.967 566.238C858.515 566.367 858.085 566.523 857.661 566.691C857.661 566.691 857.655 566.691 857.649 566.691C853.333 568.428 850.261 572.161 849.211 576.492C848.647 578.805 848.664 581.286 849.373 583.722H849.379ZM893.485 556.186L873.124 562.114L871.572 556.778C871.303 555.861 871.834 554.895 872.755 554.627L877.871 553.14L887.247 550.408L889.777 549.67C889.95 549.62 890.123 549.598 890.296 549.603C891.033 549.614 891.715 550.106 891.932 550.855L893.479 556.186H893.485Z" fill="#BC3F3F"/>
<path d="M876.407 540.221C876.407 540.221 874.637 555.012 877.954 554.8C881.266 554.588 889.375 552.995 889.933 550.453C890.486 547.905 883.723 536.025 883.723 536.025L876.413 540.227L876.407 540.221Z" fill="#FFB27D"/>
<path d="M876.831 540.182C876.831 540.182 874.296 543.334 874.078 545.815C873.861 548.296 872.649 552.632 873.788 552.911C874.922 553.191 876.999 547.513 876.999 547.513L876.831 540.182Z" fill="#FFB27D"/>
<path d="M824.002 389.278C824.002 389.278 838.321 392.709 849.635 414.463C860.954 436.216 869.89 480.091 875.295 491.675C880.701 503.252 884.811 538.003 884.811 538.003C884.811 538.003 883.968 539.73 881.058 540.361C878.797 540.853 876.479 540.657 876.479 540.657C876.479 540.657 855.197 506.544 852.142 494.29C850.489 487.657 825.236 434.573 825.236 434.573L824.008 389.284L824.002 389.278Z" fill="white"/>
<path d="M568.922 176.144C568.922 176.144 558.713 157.995 568.922 154.301C579.13 150.608 583.749 154.016 584.234 158.145C584.72 162.28 580.348 178.574 580.348 178.574L568.922 176.144Z" fill="#FFB27D"/>
<path d="M577.103 292.23C558.49 295.588 541.379 297.142 525.938 297.488C511.279 297.818 498.122 297.058 486.606 295.717C483.513 295.359 480.547 294.962 477.694 294.532C447.56 289.961 430.924 281.853 430.924 281.853C430.924 281.853 458.455 224.188 480.693 226.4C506.783 229.004 551.001 252.428 555.396 245.863C560.344 238.459 564.487 174.976 564.487 174.976C576.058 167.047 582.961 175.406 582.961 175.406C582.961 175.406 605.561 287.1 577.103 292.236V292.23Z" fill="#F99746"/>
<path d="M577.104 292.23C558.491 295.588 541.38 297.142 525.939 297.488C511.28 297.818 498.123 297.058 486.608 295.717C479.666 273.628 474.674 251.065 488.635 264.665C513.262 288.659 577.104 292.23 577.104 292.23Z" fill="#ED7D2B"/>
<path d="M428.835 757.81C428.835 757.81 426.852 780.731 431.7 783.117L493.676 782.988C493.676 782.988 493.676 775.83 483.719 774.243C473.762 772.651 456.277 766.823 453.317 753.831C450.357 740.839 428.835 757.81 428.835 757.81Z" fill="#233862"/>
<path d="M474.338 480.365C474.031 495.357 473.31 510.818 471.903 524.71C465.207 590.646 462.856 670.316 461.896 685.671C460.226 712.336 454.965 754.932 454.965 754.932C454.965 754.932 444.523 764.85 424.173 760.117C424.173 760.117 407.308 698.769 403.544 634.169C403.488 633.107 403.426 632.045 403.376 630.978C402.941 622.434 402.483 612.673 402.014 602.14C398.914 531.605 395.547 426.828 395.547 426.828L473.322 408.556C473.322 408.556 475.109 442.994 474.349 480.365H474.338Z" fill="#2A4E96"/>
<path d="M474.338 480.365C454.63 514.389 417.058 577.078 402.008 602.14C398.908 531.605 395.541 426.828 395.541 426.828L473.316 408.556C473.316 408.556 475.103 442.994 474.343 480.365H474.338Z" fill="#233862"/>
<path d="M277.413 414.452C277.413 414.452 264.759 429.343 263.619 433.472C262.48 437.602 260.453 452.476 261.542 456.947C262.625 461.417 271.041 444.48 274.101 442.675C277.162 440.865 271.806 449.409 272.85 450.839C273.895 452.264 279.937 445.849 282.294 443.681C284.65 441.513 284.416 429.829 287.247 422.923C290.079 416.016 277.413 414.452 277.413 414.452Z" fill="#FFB27D"/>
<path d="M274.442 731.759C274.442 731.759 263.413 741.834 265.563 748.987C267.713 756.145 277.67 760.917 279.016 769.661C280.362 778.406 285.74 783.178 290.587 783.178H313.673C313.673 783.178 317.236 777.021 308.63 775.165C300.019 773.31 296.775 763.029 297.311 753.49C297.847 743.946 296.501 731.223 296.501 731.223L278.206 726.982L274.442 731.754V731.759Z" fill="#233862"/>
<path d="M461.057 428.426C461.057 428.426 388.253 584.292 349.508 652.681C310.763 721.07 298.656 740.158 298.656 740.158C298.656 740.158 276.457 731.407 274.441 725.445C274.441 725.445 289.257 593.417 315.202 561.231C329.862 543.043 347.084 488.467 347.894 469.385C348.703 450.297 365.708 404.745 365.708 404.745L461.052 428.426H461.057Z" fill="#2A4E96"/>
<path d="M482.34 435.78C482.34 435.78 453.39 455.147 412.411 453.348C394.429 452.56 358.756 447.458 352.998 433.148C351.647 429.79 352.635 425.526 354.668 418.978C359.928 401.968 372.197 369.576 368.495 297.756C368.149 291.073 368.339 284.793 368.975 278.909C372.834 243.532 393.094 222.584 412.679 215.739C460.437 199.037 476.359 222.176 476.359 222.176C476.359 222.176 497.468 238.911 500.651 273.835C507.012 343.693 482.34 435.769 482.34 435.769V435.78Z" fill="#F99746"/>
<path d="M426.674 211.732C426.674 211.732 448.587 225.07 472.355 221.299C472.355 221.299 477.051 220.103 474.745 214.582C476.191 210.129 476.018 210.531 476.856 207.217C478.939 199.601 479.575 195.204 479.575 195.204L466.089 181.016L453.312 167.46C449.782 199.858 426.674 211.732 426.674 211.732Z" fill="#FFB27D"/>
<path d="M451.264 179.748C451.264 179.748 458.602 199.378 476.852 207.217C478.935 199.601 480.292 191.627 480.292 191.627L466.085 181.016L451.264 179.748Z" fill="#ED985F"/>
<path d="M494.709 194.516C494.709 194.516 452.882 199.747 449.944 174.026C447.007 148.305 439.63 131.659 466.217 127.234C492.799 122.808 499.121 132.051 502.22 140.404C505.32 148.758 505.521 192.494 494.715 194.516H494.709Z" fill="#FFB27D"/>
<path d="M436.738 123.054C436.375 122.607 435.52 122.227 433.588 122.048C433.588 122.048 435.174 121.138 437.246 121.166C437.754 118.483 439.368 113.767 444.048 112.784C444.048 112.784 441.507 114.019 441.071 116.874C446.65 111.56 458.305 107.978 490.075 111.7C531.936 116.606 517.081 142.98 511.525 145.981C505.968 148.981 492.616 139.672 482.457 140.091C472.299 140.51 469.82 155.083 466.307 156.961C462.795 158.838 464.28 155.34 459.712 153.061C455.144 150.781 454.407 158.475 455.563 163.538C456.719 168.6 450.079 174.97 450.079 174.97L443.886 167.768C437.692 160.565 432.722 130.877 435.894 124.708C436.173 124.161 436.453 123.613 436.738 123.054Z" fill="#2C3A64"/>
<path d="M564.488 164.108L493.47 164.739L492.99 154.05L563.779 148.562L564.488 164.108Z" fill="#2A4E96"/>
<path d="M618.088 165.89L540.777 167.008L539.895 147.573L616.988 141.6L618.088 165.89Z" fill="#2A4E96"/>
<path d="M670.224 167.416L605.025 167.499L603.836 141.259L668.766 135.347L670.224 167.416Z" fill="#233862"/>
<path d="M671.158 171.847C673.168 171.757 674.726 170.047 674.637 168.036L673.107 134.33C673.017 132.319 671.308 130.76 669.298 130.849C667.288 130.939 665.729 132.648 665.824 134.66L667.355 168.365C667.444 170.377 669.153 171.936 671.163 171.847H671.158Z" fill="#233862"/>
<path d="M493.253 167.019C491.466 167.103 489.947 165.717 489.869 163.929L489.472 155.184C489.389 153.396 490.774 151.882 492.561 151.798C494.348 151.714 495.867 153.1 495.945 154.888L496.341 163.633C496.425 165.421 495.04 166.935 493.253 167.019Z" fill="#2A4E96"/>
<path d="M354.668 418.978C359.928 401.968 372.197 369.576 368.495 297.756C368.149 291.073 368.338 284.793 368.975 278.909C384.69 277.556 408.72 294.56 408.72 294.56C408.72 294.56 393.921 384.819 354.662 418.978H354.668Z" fill="#ED7D2B"/>
<path d="M426.674 211.732C426.674 211.732 386.371 218.667 365.351 244.343C344.331 270.018 310.517 306.222 302.525 318.9C294.529 331.579 272.336 417.86 272.336 417.86C272.336 417.86 273.799 420.632 279.92 422.246C285.778 423.789 290.027 421.397 290.027 421.397C290.027 421.397 319.43 371.046 330.498 345.895C335.094 335.446 414.611 294.057 444.505 298.343C456.243 300.025 426.668 211.738 426.668 211.738L426.674 211.732Z" fill="#F99746"/>
<path d="M564.062 145.5C564.062 145.5 572.73 150.803 577.918 148.562C583.105 146.316 582.648 144.265 582.648 144.265C582.648 144.265 566.983 139.918 564.068 145.506L564.062 145.5Z" fill="#FFB27D"/>
<path d="M465.783 239.861C465.783 239.861 448.097 351.589 322.608 384.121L308.938 411.104L332.951 415.172C332.951 415.172 475.812 373.761 473.891 237.883L465.783 239.861Z" fill="#BC3F3F"/>
<path d="M463.041 222.025L457.244 222.595V230.982L465.783 239.861L473.897 237.883V226.244L468.061 222.025H463.041Z" fill="#A02E2E"/>
<path d="M440.312 199.808C440.312 199.808 434.705 201.076 421.889 211.732C421.889 211.732 434.638 238.811 461.533 242.052C461.533 242.052 461.097 229.485 463.041 222.031C463.041 222.031 441.725 214.398 440.312 199.814V199.808Z" fill="#ED7D2B"/>
<path d="M463.041 222.025C463.041 222.025 476.164 228.999 477.136 239.861C477.136 239.861 482.151 231.91 480.699 226.4C479.242 220.891 474.746 214.582 474.746 214.582C474.746 214.582 475.193 221.215 463.041 222.025Z" fill="#ED7D2B"/>
</g>
<defs>
<clipPath id="clip0_274_512">
<rect width="1477" height="786" fill="white" transform="translate(-384)"/>
</clipPath>
</defs>
</svg>
